<svg width="100" height="100" viewBox="0 0 100 100" fill="none" xmlns="http://www.w3.org/2000/svg">
<path d="M38.5096 42.7887L51 35.5774L63.4904 42.7887V57.2113L51 64.4227L38.5096 57.2113V42.7887Z" stroke="#040404"/>
<path d="M50.6464 55.3536C50.8417 55.5488 51.1583 55.5488 51.3536 55.3536L54.5355 52.1716C54.7308 51.9763 54.7308 51.6597 54.5355 51.4645C54.3403 51.2692 54.0237 51.2692 53.8284 51.4645L51 54.2929L48.1716 51.4645C47.9763 51.2692 47.6597 51.2692 47.4645 51.4645C47.2692 51.6597 47.2692 51.9763 47.4645 52.1716L50.6464 55.3536ZM50.5 45V55H51.5V45H50.5Z" fill="#040404"/>
</svg>
